<svg xmlns="http://www.w3.org/2000/svg" version="1.1" xmlns:xlink="http://www.w3.org/1999/xlink" xmlns:svgjs="http://svgjs.com/svgjs" viewBox="0 0 640 400" data-background-color="#ffffff" preserveAspectRatio="xMidYMid meet" height="400" width="640"><rect width="640" height="400" x="0" y="0" opacity="1" fill="#ffffff" data-fill-palette-color="background" id="background"></rect><g id="tight-bounds" transform="matrix(1,0,0,1,160,20)"><svg viewBox="0 0 320 360" height="360" width="320"><g><svg xmlns="http://www.w3.org/2000/svg" version="1.1" xmlns:xlink="http://www.w3.org/1999/xlink" xmlns:svgjs="http://svgjs.com/svgjs"></svg></g><g><svg viewBox="0 0 320 360" height="360" width="320"><g><path d="M20.961 227.22l3.726 4.658-1.863-6.056c-0.466-2.795-3.726 0.466-1.863 1.398M25.153 224.425c1.397 2.329 2.795 4.658 2.795 6.987 0 3.261 2.795 4.658 5.123 5.589-3.261-3.726-5.124-13.974-7.918-12.576M204.017 26.929c7.918 0 15.371-0.932 23.756 0.931 20.495 5.124 37.729 15.371 49.374 29.811l32.606 52.169c1.397 13.042 4.192 27.482 3.726 43.319 3.261 0 2.795-4.658 6.521-5.59-3.726 9.316-5.59 20.961-6.521 34.469-2.329-7.453 0-18.632 0.466-24.687-3.261 5.124-5.124 1.397-5.124-0.932 0.466-3.726-1.397-3.261-2.795-4.658-5.124-4.658-8.384-9.782-12.11-17.7 2.329-6.055 2.795-14.905-4.658-19.563-2.329-1.397-5.124-3.726-6.521-7.453-1.863-5.124-5.124-11.179-4.193-19.097 0.466-2.329-6.987 5.124-11.179 1.863-18.166-12.576-36.332-27.016-58.224-39.127-11.645 0-20.029-4.192-24.221-9.316-3.726-4.658-0.932-10.713 4.658-11.179 3.261 0 6.987-0.932 9.782 0.932 0.466-1.863 2.329-4.192 4.657-4.192M157.904 16.215l0.932 0.466c4.658 0.932 6.987 7.453 12.11 5.124 0 3.261 0.466 6.521-0.466 8.85-1.397 3.726-5.59 3.726-8.85 3.726-31.208-1.863-49.374 11.179-68.471 22.358-5.124 3.261-10.713 5.59-14.906 9.782-20.029 18.632-41.921 35.866-47.045 70.335l-4.192 38.195c-0.466 4.192-5.124 8.384-4.192 13.508l3.26 22.824c-3.261-3.261-5.124 0.932-4.192 2.795 0.466 1.397 2.329 6.055 5.124 1.863 3.726 6.987 7.453 20.495 12.576 26.55 15.837 18.632 36.332 35.4 53.101 52.169 4.192-0.932 7.453-0.932 8.384-3.727 1.397 2.795-1.397 5.59-3.726 6.056 7.453 4.658 15.837 8.85 27.016 9.781 14.44 0.932 27.948 3.261 40.524 6.522 6.521-1.863 13.042-2.795 20.029-3.261 2.329 0 3.726-3.726 6.521-4.658l0.466-4.658c2.795 4.192 2.329-1.397 0.466-4.192 3.261 2.795 4.192 5.124 5.589 6.987 0-1.397 3.726-6.521 3.727-0.466l0.931-6.055c1.397-0.932 1.863 5.124 3.261 0.931 1.397-4.192 4.192-0.932 6.987-2.329-0.932 1.863-0.466 5.59 2.794 3.261l3.727-3.261c2.329 5.59 6.055 3.261 7.918 2.329 20.495-13.042 40.99-28.413 60.553-43.784l-0.466 6.055 2.329-7.453c2.329 2.329 4.192 0.466 5.124-0.931 2.795-4.658 6.521-9.316 12.577-13.508-7.453 20.029-16.303 35.866-27.482 48.908l-4.658 5.59c0 3.261-0.932 7.453-4.658 7.918-1.863 0.466-5.59-0.932-8.384 1.863-1.397 1.863 3.261 5.59-0.466 2.795-3.261-2.329-6.521 0-10.248 0.932-2.795 0.932 1.863 3.726 2.795 5.589 0.932 1.863 1.863 3.726 1.398 6.056l-5.124-5.59c-6.055 3.261-9.782 9.316-14.906 13.974-2.329 1.863-1.397 5.124-1.397 7.918-3.261 0-6.987-0.932-8.85 0.932-1.397 1.863-0.932 4.658-0.932 7.453-4.658-0.466-5.124-7.453-9.315-6.056-4.192 0.932-8.85 1.397-12.577 3.727 2.795 5.59-4.658 2.329-3.726 3.26-6.987-4.192-13.042-7.453-20.495-4.658-15.837-5.124-35.4-2.795-49.84-0.931 0-2.329 0.466-4.658-0.466-5.124-0.932 2.329-3.726 1.397-3.26 1.397-8.85-6.055-17.7-9.782-27.016-14.905-8.384 0.932-16.303-3.261-18.632-5.59-6.521-6.055-13.974-2.795-20.029-4.192-13.042-3.261-17.7-16.769-19.098-26.084-0.932-4.658-4.658-6.521-6.055-6.056-6.055-19.563-15.371-37.263-22.824-55.429-1.863-4.658-1.397-9.316-1.397-14.44 2.329 0.932 4.658 0.466 4.192-2.794-2.329-15.371-7.918-27.016-13.974-38.195 3.261-15.837 3.726-34.469 11.179-48.443 6.521-12.576 18.632-19.098 27.016-29.811 2.795-3.726 2.795-8.85 5.59-12.11 9.316-9.316 18.632-19.098 28.879-27.482 4.658-3.726 10.247 0 17.234-1.397 2.329-8.384 11.645-15.837 20.495-13.508 3.726 0.932 11.179-8.85 13.508-9.782 3.726-1.397 1.863 3.726 1.863 6.987 8.85-6.987 20.961-10.713 32.14-14.906" fill="#27292a" data-fill-palette-color="tertiary"></path></g><g transform="matrix(1,0,0,1,56.000000000000014,116.5070915996327)"><svg viewBox="0 0 207.99999999999997 126.9858168007346" height="126.9858168007346" width="207.99999999999997"><g><svg viewBox="0 0 207.99999999999997 126.9858168007346" height="126.9858168007346" width="207.99999999999997"><g><svg viewBox="0 0 207.99999999999997 126.9858168007346" height="126.9858168007346" width="207.99999999999997"><g transform="matrix(1,0,0,1,0,76.75257529476583)"><svg viewBox="0 0 207.99999999999997 50.23324150596877" height="50.23324150596877" width="207.99999999999997"><g><svg viewBox="0 0 207.99999999999997 50.23324150596877" height="50.23324150596877" width="207.99999999999997"><g><svg viewBox="0 0 207.99999999999997 50.23324150596877" height="50.23324150596877" width="207.99999999999997"><g transform="matrix(1,0,0,1,0,0)"><svg width="207.99999999999997" viewBox="1.5 -39 163.34 39.45" height="50.23324150596877" data-palette-color="#27292a"><path d="M11.25 0.45L11.25 0.45Q6.7 0.45 4.1-1.7L4.1-1.7Q3.05-2.6 2.27-4.35 1.5-6.1 1.5-8.45 1.5-10.8 2.63-12.55 3.75-14.3 5.35-15.25 6.95-16.2 9.1-16.8L9.1-16.8Q12.35-17.65 16.25-17.65L16.25-17.65 17.9-17.65Q17.9-19.7 16.5-20.55L16.5-20.55Q15.9-20.9 14.68-20.9 13.45-20.9 11.73-20.25 10-19.6 8.85-18.93 7.7-18.25 7.3-18.25L7.3-18.25Q6.4-18.25 4.85-20.63 3.3-23 3.3-24.95L3.3-24.95Q3.3-25.6 5.15-26.65 7-27.7 10.38-28.58 13.75-29.45 16.95-29.45 20.15-29.45 22.48-28.93 24.8-28.4 26.28-27.65 27.75-26.9 28.78-25.65 29.8-24.4 30.33-23.4 30.85-22.4 31.1-20.8L31.1-20.8Q31.45-18.95 31.45-16.25L31.45-16.25 31.45-1.2Q31.45-0.65 28.78-0.33 26.1 0 23.48 0 20.85 0 20.08-0.15 19.3-0.3 19.15-0.5 19-0.7 18.9-1.2L18.9-1.2 18.5-4.05 18.1-4.05Q16.85 0.45 11.25 0.45ZM17.95-7.85L17.95-7.85 17.95-13.7Q16.65-13.7 15.85-12.6 15.05-11.5 15.05-10.1L15.05-10.1Q15.05-6.8 16.55-6.8L16.55-6.8Q17.2-6.8 17.57-7.13 17.95-7.45 17.95-7.85ZM44.35 0.45L44.35 0.45Q42.5 0.45 40.9-0.1 39.3-0.65 38.27-1.45 37.25-2.25 36.5-3.6 35.75-4.95 35.35-6.18 34.95-7.4 34.75-9.2L34.75-9.2Q34.45-11.85 34.45-15.25L34.45-15.25Q34.45-22.2 37-25.83 39.55-29.45 44-29.45L44-29.45Q48.55-29.45 50.6-27.3L50.6-27.3Q51.05-26.8 51.3-26.1L51.3-26.1 51.7-26.1 51.1-29.55 51.1-35.8Q51.1-36.9 53.9-37.95 56.7-39 59.95-39L59.95-39Q63.35-39 64.3-37.7L64.3-37.7Q64.65-37.2 64.65-36.7L64.65-36.7 64.65-1.2Q64.65-0.65 61.87-0.33 59.1 0 56.52 0 53.95 0 53.22-0.18 52.5-0.35 52.32-0.55 52.15-0.75 52.1-1.2L52.1-1.2 51.7-4.05 51.3-4.05Q50.85-2.3 49.5-1.1L49.5-1.1Q47.8 0.45 44.35 0.45ZM49.95-6.85L49.95-6.85Q50.75-6.85 51.15-7.85L51.15-7.85 51.15-21.2Q51.15-21.7 50.62-21.98 50.1-22.25 49.7-22.25L49.7-22.25Q48-22.25 48-14.45L48-14.45Q48-10.3 48.47-8.58 48.95-6.85 49.95-6.85ZM113.7-16.5L113.7-16.5 113.7-1.2Q113.7-0.65 110.87-0.33 108.05 0 105.02 0 102 0 101.1-0.28 100.2-0.55 100.2-1.2L100.2-1.2 100.2-15.05Q100.2-22.2 98.75-22.2L98.75-22.2Q98.4-22.2 98.05-21.9 97.7-21.6 97.7-20.85L97.7-20.85 97.7-1.2Q97.7-0.65 94.87-0.33 92.05 0 89 0 85.95 0 85.07-0.28 84.2-0.55 84.2-1.2L84.2-1.2 84.2-15.05Q84.2-20.6 83.5-21.7L83.5-21.7Q83.15-22.2 82.6-22.2L82.6-22.2Q81.65-22.2 81.65-20.85L81.65-20.85 81.65-1.2Q81.65-0.65 78.8-0.33 75.95 0 72.92 0 69.9 0 69.02-0.28 68.15-0.55 68.15-1.2L68.15-1.2 68.15-25.85Q68.15-26.9 71.02-27.95 73.9-29 77.1-29 80.3-29 80.7-27.15L80.7-27.15 81.15-24.95 81.5-24.95Q82.95-27.8 86.3-29L86.3-29Q87.7-29.45 89.9-29.45L89.9-29.45Q94.3-29.45 96.3-24.95L96.3-24.95Q96.95-26.45 99.55-27.95 102.15-29.45 105.3-29.45L105.3-29.45Q110.25-29.45 111.97-26.38 113.7-23.3 113.7-16.5ZM130.94-25.85L130.94-25.85 130.94-1.2Q130.94-0.65 128.07-0.33 125.19 0 122.17 0 119.14 0 118.27-0.28 117.39-0.55 117.39-1.2L117.39-1.2 117.39-24.95Q117.39-26.05 120.22-27.13 123.04-28.2 126.39-28.2L126.39-28.2Q130.94-28.2 130.94-25.85ZM124.14-39L124.14-39Q127.44-39 129.32-38.02 131.19-37.05 131.19-34.5L131.19-34.5Q131.19-30 124.19-30 117.19-30 117.19-34.5 117.19-39 124.14-39ZM164.84-16.6L164.84-16.6 164.84-1.2Q164.84-0.65 161.99-0.33 159.14 0 156.12 0 153.09 0 152.22-0.28 151.34-0.55 151.34-1.2L151.34-1.2 151.34-17.1Q151.34-19.35 151.17-20.05 150.99-20.75 150.84-21.3L150.84-21.3Q150.49-22.25 149.59-22.25L149.59-22.25Q148.19-22.25 148.19-20.9L148.19-20.9 148.19-1.2Q148.19-0.65 145.37-0.33 142.54 0 139.52 0 136.49 0 135.59-0.28 134.69-0.55 134.69-1.2L134.69-1.2 134.69-25.85Q134.69-26.9 137.57-27.95 140.44-29 143.64-29 146.84-29 147.24-27.15L147.24-27.15 147.69-24.95 148.04-24.95Q149.49-27.85 153.04-29L153.04-29Q154.49-29.45 156.24-29.45L156.24-29.45Q161.29-29.45 163.07-26.43 164.84-23.4 164.84-16.6Z" opacity="1" transform="matrix(1,0,0,1,0,0)" fill="#27292a" class="undefined-text-0" data-fill-palette-color="primary" id="text-0"></path></svg></g></svg></g></svg></g></svg></g><g transform="matrix(1,0,0,1,69.05586924769352,0)"><svg viewBox="0 0 69.88826150461293 69.42233976124885" height="69.42233976124885" width="69.88826150461293"><g><svg xmlns="http://www.w3.org/2000/svg" xmlns:xlink="http://www.w3.org/1999/xlink" version="1.0" x="0" y="0" viewBox="5 5.3 90 89.4" enable-background="new 0 0 100 100" xml:space="preserve" height="69.42233976124885" width="69.88826150461293" class="icon-icon-0" fill="#fdc500" data-fill-palette-color="accent" id="icon-0"><path d="M94.5 43.6H90V29.4C83.2 16.3 70.3 7 55 5.3v6.1H45V5.3C29.7 7 16.8 16.3 10 29.4v14.2H5.5v0H5v12.9h0.5c0 0 0 0 0 0H10v14.2C16.8 83.7 29.7 93 45 94.7v-6.1h10v6.1c15.3-1.7 28.2-11 35-24.1V56.4h4.5c0 0 0 0 0 0H95V43.6L94.5 43.6 94.5 43.6zM30.7 56.4c-3.6 0-6.4-2.9-6.4-6.4s2.9-6.4 6.4-6.4 6.4 2.9 6.4 6.4S34.3 56.4 30.7 56.4zM69.3 56.4c-3.6 0-6.4-2.9-6.4-6.4s2.9-6.4 6.4-6.4 6.4 2.9 6.4 6.4S72.8 56.4 69.3 56.4z" fill="#fdc500" data-fill-palette-color="accent"></path></svg></g></svg></g><g></g></svg></g></svg></g></svg></g></svg></g></svg><rect width="320" height="360" fill="transparent" stroke="transparent"></rect></g><defs></defs></svg>