<svg viewBox="0 0 370.22222222222223 77.77777777777777" preserveAspectRatio="xMidYMid meet" class="css-1af7stb" id="aheeaebc"><defs id="SvgjsDefs5397"><linearGradient id="SvgjsLinearGradient5402"><stop id="SvgjsStop5403" stop-color="#006838" offset="0"></stop><stop id="SvgjsStop5404" stop-color="#96cf24" offset="1"></stop></linearGradient></defs><g id="SvgjsG5398" featurekey="symbolFeature-0" transform="matrix(-0.18274854849485964,0,0,0.18274854849485964,102.8508780735682,-25.073100295790432)" fill="#04a118"><path xmlns="http://www.w3.org/2000/svg" d="M186.5,516.3c-0.7,0-1.4-0.3-2-0.8c-0.5-0.5-0.8-1.3-0.8-2s0.3-1.4,0.8-2l371.7-371.7c1.1-1.1,2.9-1.1,4,0  c0.5,0.5,0.8,1.3,0.8,2c0,0.7-0.3,1.4-0.8,2L188.5,515.5C188,516.1,187.2,516.3,186.5,516.3z"></path><path xmlns="http://www.w3.org/2000/svg" d="M463.1,516.3H259.9c-1.5,0-2.8-1.3-2.8-2.8s1.3-2.8,2.8-2.8h203.1c1.5,0,2.8,1.3,2.8,2.8S464.6,516.3,463.1,516.3z"></path><path xmlns="http://www.w3.org/2000/svg" d="M480.3,493.1H249.5c-1.5,0-2.8-1.3-2.8-2.8s1.3-2.8,2.8-2.8h230.8c1.5,0,2.8,1.3,2.8,2.8S481.9,493.1,480.3,493.1z"></path><path xmlns="http://www.w3.org/2000/svg" d="M277.7,539.6c-1.5,0-2.8-1.3-2.8-2.8c0-1.5,1.3-2.8,2.8-2.8l164.3,0c1.5,0,2.8,1.3,2.8,2.8c0,1.5-1.3,2.8-2.8,2.8  L277.7,539.6z"></path><path xmlns="http://www.w3.org/2000/svg" d="M408.7,562.8H311c-1.5,0-2.8-1.3-2.8-2.8s1.3-2.8,2.8-2.8h97.7c1.5,0,2.8,1.3,2.8,2.8S410.3,562.8,408.7,562.8z"></path><path xmlns="http://www.w3.org/2000/svg" d="M494.6,469.9H233c-1.5,0-2.8-1.3-2.8-2.8s1.3-2.8,2.8-2.8h261.7c1.5,0,2.8,1.3,2.8,2.8S496.2,469.9,494.6,469.9z"></path><path xmlns="http://www.w3.org/2000/svg" d="M506.4,446.6L506.4,446.6l-250.2,0c-0.7,0-1.5-0.3-2-0.8c-0.8-0.8-1-2-0.6-3.1c0.4-1,1.4-1.7,2.6-1.7c0,0,0,0,0,0l250.2,0  c1.5,0,2.8,1.3,2.8,2.8C509.2,445.4,508,446.6,506.4,446.6z"></path><path xmlns="http://www.w3.org/2000/svg" d="M516,423.4H279.5c-0.7,0-1.5-0.3-2-0.8c-0.8-0.8-1-2-0.6-3.1c0.4-1,1.4-1.7,2.6-1.7l0,0l236.5,0c1.5,0,2.8,1.3,2.8,2.8  C518.8,422.1,517.5,423.4,516,423.4z"></path><path xmlns="http://www.w3.org/2000/svg" d="M524.6,400.2L524.6,400.2l-221.9,0c-0.7,0-1.5-0.3-2-0.8c-0.8-0.8-1.1-2-0.6-3.1c0.4-1,1.4-1.7,2.6-1.7h0l221.9,0  c1.5,0,2.8,1.3,2.8,2.8C527.4,398.9,526.1,400.2,524.6,400.2z"></path><path xmlns="http://www.w3.org/2000/svg" d="M532.3,376.9H325.9c-1.5,0-2.8-1.3-2.8-2.8c0-0.7,0.3-1.5,0.8-2c0.5-0.5,1.2-0.8,2-0.8l0,0l206.3,0c1.5,0,2.8,1.3,2.8,2.8  C535.1,375.7,533.8,376.9,532.3,376.9z"></path><path xmlns="http://www.w3.org/2000/svg" d="M538.7,353.7H349.1c-1.5,0-2.8-1.3-2.8-2.8c0-0.7,0.3-1.5,0.8-2c0.5-0.5,1.2-0.8,2-0.8l0,0l189.6,0c1.5,0,2.8,1.3,2.8,2.8  C541.5,352.4,540.2,353.7,538.7,353.7z"></path><path xmlns="http://www.w3.org/2000/svg" d="M544.3,330.5L544.3,330.5l-171.9,0c-0.2,0-0.5,0-0.7-0.1c-1.4-0.3-2.3-1.7-2.1-3.1s1.3-2.5,2.8-2.5l0,0l172,0  c1.5,0,2.8,1.3,2.8,2.8C547.1,329.2,545.9,330.5,544.3,330.5z"></path><path xmlns="http://www.w3.org/2000/svg" d="M549.1,307.2L549.1,307.2l-153.5,0c-0.2,0-0.5,0-0.7-0.1c-1.4-0.3-2.3-1.7-2.1-3.1s1.4-2.5,2.8-2.5l0,0l153.5,0  c1.5,0,2.8,1.3,2.8,2.8C551.9,306,550.7,307.2,549.1,307.2z"></path><path xmlns="http://www.w3.org/2000/svg" d="M553.1,284L553.1,284l-134.3,0c-0.6,0-1.1-0.2-1.6-0.5c-1-0.7-1.5-2-1.1-3.1c0.4-1.2,1.4-2,2.7-2l0,0l134.3,0  c1.5,0,2.8,1.3,2.8,2.8C555.9,282.7,554.7,284,553.1,284z"></path><path xmlns="http://www.w3.org/2000/svg" d="M556,260.8H442.1c-1.5,0-2.8-1.3-2.8-2.8c0-0.7,0.3-1.5,0.8-2c0.5-0.5,1.2-0.8,2-0.8c0,0,0,0,0,0l113.9,0  c1.5,0,2.8,1.3,2.8,2.8C558.8,259.5,557.5,260.8,556,260.8z"></path><path xmlns="http://www.w3.org/2000/svg" d="M558.1,237.5h-92.8c-0.6,0-1.1-0.2-1.6-0.5c-1-0.7-1.5-2-1.1-3.1s1.4-2,2.7-2l0,0l92.8,0c1.5,0,2.8,1.3,2.8,2.8  C560.9,236.3,559.6,237.5,558.1,237.5z"></path><path xmlns="http://www.w3.org/2000/svg" d="M559.4,214.3h-70.9c-0.9,0-1.7-0.4-2.2-1.1c-0.6-0.8-0.8-2-0.3-2.9c0.5-0.9,1.4-1.6,2.5-1.6h0l70.9,0c1.5,0,2.8,1.3,2.8,2.8  C562.2,213.1,561,214.3,559.4,214.3z"></path><path xmlns="http://www.w3.org/2000/svg" d="M560,191.1h-48.2c-0.4,0-0.9-0.1-1.3-0.3c-1.2-0.6-1.8-1.9-1.5-3.2c0.3-1.3,1.4-2.2,2.7-2.2c0,0,0,0,0,0l48.3,0  c1.5,0,2.8,1.3,2.8,2.8C562.8,189.8,561.5,191.1,560,191.1z"></path><path xmlns="http://www.w3.org/2000/svg" d="M559.6,167.8H535c-0.7,0-1.5-0.3-2-0.8c-0.8-0.8-1.1-2-0.6-3.1c0.4-1,1.4-1.7,2.6-1.7c0,0,0,0,0,0l24.6,0  c1.5,0,2.8,1.3,2.8,2.8S561.1,167.8,559.6,167.8z"></path><path xmlns="http://www.w3.org/2000/svg" d="M186.5,442.9C186.5,442.9,186.5,442.9,186.5,442.9c-1.5,0-2.8-1.3-2.8-2.8l0-203.1c0-1.5,1.3-2.8,2.8-2.8c0,0,0,0,0,0  c1.5,0,2.8,1.3,2.8,2.8l0,203.1C189.3,441.6,188,442.9,186.5,442.9z"></path><path xmlns="http://www.w3.org/2000/svg" d="M209.7,453.3c-1.5,0-2.8-1.3-2.8-2.8V219.7c0-1.5,1.3-2.8,2.8-2.8s2.8,1.3,2.8,2.8v230.9  C212.5,452.1,211.3,453.3,209.7,453.3z"></path><path xmlns="http://www.w3.org/2000/svg" d="M163.2,425.1C163.2,425.1,163.2,425.1,163.2,425.1c-1.5,0-2.8-1.3-2.8-2.8l0-164.3c0-1.5,1.3-2.8,2.8-2.8c0,0,0,0,0,0  c1.5,0,2.8,1.3,2.8,2.8l0,164.3C166,423.8,164.8,425.1,163.2,425.1z"></path><path xmlns="http://www.w3.org/2000/svg" d="M140,391.8C140,391.8,140,391.8,140,391.8c-1.5,0-2.8-1.3-2.8-2.8l0-97.7c0-1.5,1.3-2.8,2.8-2.8h0c1.5,0,2.8,1.3,2.8,2.8  l0,97.7C142.8,390.5,141.5,391.8,140,391.8z"></path><path xmlns="http://www.w3.org/2000/svg" d="M232.9,469.9c-1.5,0-2.8-1.3-2.8-2.8V205.4c0-1.5,1.3-2.8,2.8-2.8s2.8,1.3,2.8,2.8v261.7  C235.7,468.6,234.5,469.9,232.9,469.9z"></path><path xmlns="http://www.w3.org/2000/svg" d="M256.2,446.6c-0.7,0-1.4-0.3-2-0.8l0,0c-0.5-0.5-0.8-1.2-0.8-2V193.6c0-1.5,1.3-2.8,2.8-2.8c1.5,0,2.8,1.3,2.8,2.8l0,250.2  c0,1.1-0.7,2.2-1.7,2.6C256.9,446.5,256.6,446.6,256.2,446.6z"></path><path xmlns="http://www.w3.org/2000/svg" d="M279.4,423.4c-0.7,0-1.4-0.3-2-0.8l0,0c-0.5-0.5-0.8-1.2-0.8-2l0-236.5v0v0c0-1.5,1.3-2.8,2.8-2.8c1.5,0,2.8,1.3,2.8,2.8  l0,236.6c0,1.1-0.7,2.2-1.7,2.6C280.2,423.3,279.8,423.4,279.4,423.4z"></path><path xmlns="http://www.w3.org/2000/svg" d="M302.7,400.1c-0.6,0-1.2-0.2-1.7-0.6l0,0c-0.7-0.5-1.1-1.4-1.1-2.2V175.4c0-1.5,1.3-2.8,2.8-2.8s2.8,1.3,2.8,2.8l0,221.9  c0,1.1-0.6,2-1.5,2.5C303.5,400,303.1,400.1,302.7,400.1z"></path><path xmlns="http://www.w3.org/2000/svg" d="M325.9,376.9c-0.9,0-1.8-0.5-2.3-1.2l0,0c-0.3-0.5-0.5-1-0.5-1.6l0-206.3c0-1.5,1.3-2.8,2.8-2.8c1.5,0,2.8,1.3,2.8,2.8  l0,206.4c0,1.2-0.8,2.3-2,2.7C326.5,376.9,326.2,376.9,325.9,376.9z"></path><path xmlns="http://www.w3.org/2000/svg" d="M349.1,353.7c-0.9,0-1.8-0.5-2.3-1.2l0,0c-0.3-0.5-0.5-1-0.5-1.6l0-189.5c0-1.5,1.3-2.8,2.8-2.8c1.5,0,2.8,1.3,2.8,2.8  l0,189.6c0,1.2-0.8,2.3-2,2.7C349.7,353.6,349.4,353.7,349.1,353.7z"></path><path xmlns="http://www.w3.org/2000/svg" d="M369.5,327.6l0-172c0-1.5,1.3-2.8,2.8-2.8c1.5,0,2.8,1.3,2.8,2.8l0,172H369.5z"></path><path xmlns="http://www.w3.org/2000/svg" d="M395.6,307.2c-0.7,0-1.4-0.3-2-0.8l0,0c-0.5-0.5-0.8-1.2-0.8-2V150.9c0-1.5,1.3-2.8,2.8-2.8c1.5,0,2.8,1.3,2.8,2.8l0,153.5  c0,1.1-0.7,2.2-1.7,2.6C396.3,307.2,396,307.2,395.6,307.2z"></path><path xmlns="http://www.w3.org/2000/svg" d="M416,281.2l0-134.3c0-1.5,1.3-2.8,2.8-2.8c1.5,0,2.8,1.3,2.8,2.8l0,134.3L416,281.2z"></path><path xmlns="http://www.w3.org/2000/svg" d="M442.1,260.7c-0.5,0-1-0.1-1.4-0.4l0,0c-0.9-0.5-1.4-1.4-1.4-2.4V144c0-1.5,1.3-2.8,2.8-2.8c1.5,0,2.8,1.3,2.8,2.8l0,113.9  c0,1-0.5,1.9-1.4,2.4C443,260.6,442.5,260.7,442.1,260.7z"></path><path xmlns="http://www.w3.org/2000/svg" d="M465.3,237.5c-0.8,0-1.6-0.4-2.2-1l0,0c-0.4-0.5-0.6-1.1-0.6-1.8v-92.8c0-1.5,1.3-2.8,2.8-2.8c1.5,0,2.8,1.3,2.8,2.8l0,92.8  c0,1.2-0.7,2.2-1.8,2.6C465.9,237.5,465.6,237.5,465.3,237.5z"></path><path xmlns="http://www.w3.org/2000/svg" d="M488.5,214.3c-0.5,0-1.1-0.2-1.6-0.5l0,0c-0.8-0.5-1.2-1.4-1.2-2.3v-70.9c0-1.5,1.3-2.8,2.8-2.8c1.5,0,2.8,1.3,2.8,2.8  l0,70.9c0,1-0.6,2-1.5,2.5C489.4,214.2,489,214.3,488.5,214.3z"></path><path xmlns="http://www.w3.org/2000/svg" d="M511.8,191c-1.5,0-2.8-1.3-2.8-2.8V140c0-1.5,1.3-2.8,2.8-2.8s2.8,1.3,2.8,2.8v48.3C514.5,189.8,513.3,191,511.8,191z"></path><path xmlns="http://www.w3.org/2000/svg" d="M535,167.8c-0.4,0-0.7-0.1-1-0.2l0,0c-1.1-0.4-1.8-1.5-1.8-2.6v-24.6c0-1.5,1.3-2.8,2.8-2.8h0c1.5,0,2.8,1.3,2.8,2.8l0,24.6  c0,0.9-0.5,1.8-1.2,2.3C536.1,167.6,535.5,167.8,535,167.8z"></path></g><g id="SvgjsG5399" featurekey="nameFeature-0" transform="matrix(2.2861675721737376,0,0,2.2861675721737376,93.42714377368064,-20.43172595434203)" fill="url(#SvgjsLinearGradient5402)"><path d="M23.564 12.02 l0.83223 0 l-10.994 28 l-11.402 -28 l0.84 0 l7.6572 18.81 c1.7617 -0.385 3.6244 -0.39277 5.3784 -0.0077736 c0.09332 0.019453 0.18277 0.04668 0.27609 0.066132 z M13.387 37.9272 l2.4772 -6.3076 c-0.050548 -0.01168 -0.10109 -0.023359 -0.15555 -0.035039 c-1.6022 -0.35391 -3.3017 -0.35781 -4.9116 -0.023359 z M38.556000000000004 12 c7.7196 0 14 6.2804 14 14 s-6.2804 14 -14 14 l-8.1729 0 l0 -0.75676 l2.3462 0 l0 -26.486 l-2.3462 0 l0 -0.7568 l8.1729 0 z M36.535000000000004 39.2432 l0.000039062 -26.486 l-3.0493 0 l0 26.486 l3.0493 0 z M38.556000000000004 39.2432 c7.302 0 13.243 -5.9412 13.243 -13.243 s-5.9412 -13.243 -13.243 -13.243 l-1.2643 0 l0 26.486 l1.2643 0 z M69.777 26.834 l11.189 -14.768 l0 27.934 l-0.75172 0 l0 -25.699 l-9.9632 13.155 l-0.46976 0.61832 l-1.9208 2.5363 l-0.46976 0.61832 l-0.47368 -0.61444 l-7.5996 -9.8212 l0 19.207 l-0.75172 0 l0 -27.93 z M67.38300000000001 29.996000000000002 l1.9242 -2.5402 l-9.9896 -13.158 l0 5.2702 z M97.887 12.757000000000001 l-5.0704 -0.000039062 l0 26.486 l5.0704 0 l0 0.7568 l-10.897 0 l0 -0.75676 l5.0704 0 l0 -26.486 l-5.0704 0 l0 -0.7568 l10.897 0 l0 0.7568 z M120.354 12 l0.71984 0 l0 28 l-16.462 -19.62 l0 19.619 l-0.72024 0 l0 -28 l16.462 19.722 l0 -19.722 z M120.354 37.9338 l-0.00039062 -5.048 l-15.742 -18.808 l0 5.1446 z"></path></g></svg>